<svg xmlns="http://www.w3.org/2000/svg" xmlns:xlink="http://www.w3.org/1999/xlink" width="821" zoomAndPan="magnify" viewBox="0 0 615.75 485.249994" height="647" preserveAspectRatio="xMidYMid meet" version="1.0"><defs><clipPath id="0984c5cafe"><path d="M 71 461 L 102 461 L 102 480.507812 L 71 480.507812 Z M 71 461 " clip-rule="nonzero"/></clipPath><clipPath id="e3d196668b"><path d="M 14 461 L 46 461 L 46 480.507812 L 14 480.507812 Z M 14 461 " clip-rule="nonzero"/></clipPath><clipPath id="75cc100782"><path d="M 0.351562 104 L 60 104 L 60 160 L 0.351562 160 Z M 0.351562 104 " clip-rule="nonzero"/></clipPath><clipPath id="d06b44cef0"><path d="M 0.351562 105 L 60 105 L 60 161 L 0.351562 161 Z M 0.351562 105 " clip-rule="nonzero"/></clipPath><clipPath id="0f333ac1fb"><path d="M 108 454 L 140 454 L 140 480.507812 L 108 480.507812 Z M 108 454 " clip-rule="nonzero"/></clipPath><clipPath id="06d90fee34"><path d="M 105 461 L 119 461 L 119 480.507812 L 105 480.507812 Z M 105 461 " clip-rule="nonzero"/></clipPath></defs><path fill="#ffb6b6" d="M 157.695312 210.984375 C 157.273438 211.28125 156.824219 211.523438 156.351562 211.722656 C 155.875 211.917969 155.386719 212.0625 154.878906 212.152344 C 154.375 212.242188 153.863281 212.273438 153.351562 212.25 C 152.835938 212.230469 152.332031 212.152344 151.835938 212.019531 C 151.339844 211.882812 150.863281 211.699219 150.40625 211.460938 C 149.953125 211.222656 149.527344 210.941406 149.132812 210.609375 C 148.738281 210.277344 148.386719 209.910156 148.074219 209.5 C 147.761719 209.09375 147.496094 208.65625 147.28125 208.191406 L 122.417969 210.707031 L 128.441406 199.203125 L 151.125 198.578125 C 151.527344 198.421875 151.9375 198.304688 152.359375 198.226562 C 152.78125 198.148438 153.207031 198.105469 153.632812 198.101562 C 154.0625 198.101562 154.488281 198.136719 154.910156 198.210938 C 155.335938 198.289062 155.746094 198.398438 156.148438 198.550781 C 156.550781 198.699219 156.933594 198.886719 157.304688 199.105469 C 157.671875 199.328125 158.015625 199.578125 158.339844 199.859375 C 158.660156 200.144531 158.957031 200.453125 159.222656 200.789062 C 159.488281 201.128906 159.722656 201.484375 159.921875 201.863281 C 160.121094 202.242188 160.289062 202.636719 160.417969 203.046875 C 160.546875 203.457031 160.636719 203.875 160.691406 204.300781 C 160.742188 204.726562 160.757812 205.152344 160.730469 205.578125 C 160.707031 206.007812 160.644531 206.429688 160.542969 206.847656 C 160.441406 207.265625 160.300781 207.667969 160.125 208.058594 C 159.949219 208.453125 159.742188 208.824219 159.496094 209.175781 C 159.253906 209.53125 158.980469 209.859375 158.679688 210.164062 C 158.375 210.464844 158.046875 210.742188 157.695312 210.984375 Z M 157.695312 210.984375 " fill-opacity="1" fill-rule="nonzero"/><path fill="#065a60" d="M 85.957031 222.304688 L 31.175781 199.609375 C 30.640625 199.386719 30.117188 199.140625 29.605469 198.863281 C 29.09375 198.589844 28.597656 198.292969 28.113281 197.96875 C 27.632812 197.648438 27.164062 197.300781 26.71875 196.933594 C 26.269531 196.5625 25.839844 196.175781 25.429688 195.765625 C 25.019531 195.351562 24.628906 194.921875 24.261719 194.476562 C 23.894531 194.027344 23.550781 193.558594 23.226562 193.078125 C 22.90625 192.59375 22.605469 192.097656 22.332031 191.585938 C 22.058594 191.074219 21.8125 190.550781 21.589844 190.015625 C 21.367188 189.476562 21.171875 188.933594 21.003906 188.375 C 20.835938 187.820312 20.695312 187.257812 20.582031 186.691406 C 20.46875 186.121094 20.382812 185.546875 20.324219 184.96875 C 20.269531 184.394531 20.242188 183.8125 20.238281 183.234375 C 20.238281 182.652344 20.269531 182.074219 20.324219 181.496094 C 20.382812 180.917969 20.464844 180.347656 20.578125 179.777344 C 20.691406 179.207031 20.832031 178.644531 21 178.089844 C 21.167969 177.535156 21.363281 176.988281 21.585938 176.453125 C 21.832031 175.851562 22.113281 175.269531 22.425781 174.703125 C 22.738281 174.132812 23.082031 173.582031 23.453125 173.054688 C 23.824219 172.523438 24.226562 172.011719 24.65625 171.527344 C 25.082031 171.039062 25.539062 170.578125 26.015625 170.140625 C 26.496094 169.703125 27 169.296875 27.523438 168.914062 C 28.046875 168.53125 28.589844 168.179688 29.152344 167.855469 C 29.714844 167.535156 30.292969 167.246094 30.890625 166.984375 C 31.484375 166.726562 32.089844 166.5 32.710938 166.308594 C 33.332031 166.117188 33.957031 165.960938 34.59375 165.835938 C 35.230469 165.714844 35.875 165.625 36.519531 165.574219 C 37.167969 165.519531 37.8125 165.503906 38.460938 165.519531 C 39.109375 165.539062 39.757812 165.59375 40.398438 165.683594 C 41.042969 165.769531 41.675781 165.894531 42.304688 166.054688 C 42.933594 166.214844 43.550781 166.40625 44.160156 166.632812 C 44.769531 166.859375 45.363281 167.117188 45.941406 167.410156 C 46.519531 167.703125 47.082031 168.023438 47.625 168.378906 L 91.761719 197.066406 L 137.699219 194.742188 L 141.136719 209.042969 Z M 85.957031 222.304688 " fill-opacity="1" fill-rule="nonzero"/><path fill="#ffb6b6" d="M 75.863281 466.273438 L 84.636719 466.273438 L 88.808594 432.453125 L 75.863281 432.453125 Z M 75.863281 466.273438 " fill-opacity="1" fill-rule="nonzero"/><g clip-path="url(#0984c5cafe)"><path fill="#2f2e41" d="M 72.894531 461.949219 L 86.757812 461.121094 L 86.757812 467.058594 L 99.941406 476.160156 C 100.265625 476.386719 100.550781 476.65625 100.789062 476.96875 C 101.027344 477.285156 101.210938 477.628906 101.339844 478.003906 C 101.46875 478.378906 101.535156 478.761719 101.542969 479.15625 C 101.550781 479.554688 101.492188 479.9375 101.375 480.316406 C 101.257812 480.695312 101.082031 481.042969 100.855469 481.367188 C 100.625 481.6875 100.351562 481.964844 100.03125 482.199219 C 99.714844 482.433594 99.367188 482.613281 98.988281 482.738281 C 98.613281 482.859375 98.226562 482.921875 97.832031 482.921875 L 81.324219 482.921875 L 78.480469 477.046875 L 77.371094 482.921875 L 71.144531 482.921875 Z M 72.894531 461.949219 " fill-opacity="1" fill-rule="nonzero"/></g><path fill="#ffb6b6" d="M 19.433594 466.273438 L 28.207031 466.273438 L 32.378906 432.453125 L 19.433594 432.453125 Z M 19.433594 466.273438 " fill-opacity="1" fill-rule="nonzero"/><g clip-path="url(#e3d196668b)"><path fill="#2f2e41" d="M 16.464844 461.949219 L 30.328125 461.121094 L 30.328125 467.058594 L 43.511719 476.160156 C 43.835938 476.386719 44.117188 476.65625 44.359375 476.96875 C 44.597656 477.285156 44.78125 477.628906 44.910156 478.003906 C 45.039062 478.378906 45.105469 478.761719 45.113281 479.15625 C 45.117188 479.554688 45.0625 479.9375 44.945312 480.316406 C 44.828125 480.695312 44.652344 481.042969 44.425781 481.367188 C 44.195312 481.6875 43.921875 481.964844 43.601562 482.199219 C 43.28125 482.433594 42.9375 482.613281 42.558594 482.738281 C 42.183594 482.859375 41.796875 482.921875 41.402344 482.921875 L 24.894531 482.921875 L 22.050781 477.046875 L 20.941406 482.921875 L 14.714844 482.921875 Z M 16.464844 461.949219 " fill-opacity="1" fill-rule="nonzero"/></g><path fill="#2f2e41" d="M 63.773438 279.230469 L 97.96875 347.054688 C 98.90625 348.90625 99.515625 350.863281 99.796875 352.917969 C 100.078125 354.976562 100.019531 357.023438 99.613281 359.058594 C 98.917969 362.550781 97.855469 365.925781 96.433594 369.1875 L 91.84375 423.613281 L 87.734375 440.6875 L 72.941406 441.945312 C 72.941406 441.945312 74.085938 427.636719 70.078125 407.570312 C 66.070312 387.503906 72.941406 358.28125 72.941406 358.28125 C 72.941406 358.28125 60.335938 337.65625 46.007812 327.335938 C 31.675781 317.019531 63.773438 279.230469 63.773438 279.230469 Z M 63.773438 279.230469 " fill-opacity="1" fill-rule="nonzero"/><path fill="#2f2e41" d="M 27.097656 248.574219 C 27.097656 248.574219 20.003906 261.144531 14.761719 267.910156 C 13.5625 269.429688 12.515625 271.046875 11.621094 272.761719 C 10.722656 274.476562 9.996094 276.257812 9.433594 278.109375 C 8.871094 279.960938 8.488281 281.847656 8.28125 283.773438 C 8.074219 285.695312 8.046875 287.621094 8.203125 289.550781 C 8.710938 295.117188 10.667969 301.117188 15.636719 305.871094 C 15.636719 305.871094 19.074219 314.464844 17.355469 319.054688 L 17.355469 359.75 C 17.355469 359.75 8.15625 407.804688 16.179688 422.128906 L 19.644531 454.285156 C 19.644531 454.285156 31.804688 457.695312 32.378906 451.972656 C 32.378906 451.972656 33.96875 439.394531 34.582031 435.378906 L 35.042969 394.253906 C 35.089844 391.582031 35.519531 388.972656 36.332031 386.425781 C 37.144531 383.882812 38.304688 381.503906 39.8125 379.300781 C 42.199219 375.792969 44.585938 370.347656 44.902344 362.605469 L 63.773438 279.230469 L 67.972656 250.109375 Z M 27.097656 248.574219 " fill-opacity="1" fill-rule="nonzero"/><path fill="#065a60" d="M 16.535156 203.78125 L 23.871094 240.445312 L 7.800781 277.902344 L 67.832031 254.765625 L 68.648438 252.554688 L 70.632812 245.027344 L 68.28125 221.582031 C 69.105469 219.859375 80.871094 208.992188 68.566406 189.886719 L 55.277344 158.695312 L 30.378906 158.316406 L 30.273438 158.421875 C 28.816406 159.875 27.453125 161.414062 26.1875 163.039062 C 24.917969 164.660156 23.753906 166.355469 22.695312 168.121094 C 21.636719 169.886719 20.6875 171.710938 19.851562 173.59375 C 19.019531 175.476562 18.304688 177.40625 17.707031 179.375 C 17.109375 181.347656 16.636719 183.347656 16.285156 185.378906 C 15.933594 187.40625 15.710938 189.449219 15.609375 191.507812 C 15.511719 193.566406 15.539062 195.621094 15.695312 197.671875 C 15.847656 199.726562 16.128906 201.765625 16.535156 203.78125 Z M 16.535156 203.78125 " fill-opacity="1" fill-rule="nonzero"/><path fill="#ffb6b6" d="M 53.042969 311.546875 C 52.632812 311.238281 52.261719 310.886719 51.929688 310.496094 C 51.597656 310.105469 51.308594 309.683594 51.070312 309.226562 C 50.828125 308.773438 50.640625 308.300781 50.503906 307.804688 C 50.367188 307.308594 50.285156 306.804688 50.261719 306.289062 C 50.234375 305.777344 50.265625 305.265625 50.351562 304.761719 C 50.4375 304.253906 50.578125 303.761719 50.773438 303.289062 C 50.964844 302.8125 51.210938 302.363281 51.5 301.941406 C 51.792969 301.515625 52.128906 301.132812 52.507812 300.78125 L 42.472656 277.902344 L 55.273438 280.097656 L 62.835938 301.488281 C 63.105469 301.820312 63.34375 302.175781 63.550781 302.550781 C 63.753906 302.929688 63.925781 303.320312 64.058594 303.726562 C 64.195312 304.136719 64.289062 304.550781 64.347656 304.976562 C 64.40625 305.402344 64.425781 305.828125 64.40625 306.257812 C 64.386719 306.6875 64.328125 307.109375 64.230469 307.527344 C 64.136719 307.945312 64.003906 308.351562 63.832031 308.746094 C 63.660156 309.136719 63.457031 309.511719 63.21875 309.871094 C 62.980469 310.226562 62.710938 310.558594 62.410156 310.867188 C 62.113281 311.171875 61.785156 311.449219 61.4375 311.699219 C 61.085938 311.949219 60.71875 312.164062 60.328125 312.34375 C 59.941406 312.523438 59.539062 312.667969 59.121094 312.777344 C 58.707031 312.886719 58.285156 312.953125 57.855469 312.984375 C 57.429688 313.015625 57.003906 313.007812 56.574219 312.960938 C 56.148438 312.917969 55.730469 312.832031 55.320312 312.707031 C 54.90625 312.585938 54.511719 312.425781 54.128906 312.230469 C 53.746094 312.035156 53.386719 311.808594 53.042969 311.546875 Z M 53.042969 311.546875 " fill-opacity="1" fill-rule="nonzero"/><path fill="#065a60" d="M 20.234375 246.773438 L 25.007812 187.683594 C 25.058594 187.105469 25.132812 186.53125 25.234375 185.960938 C 25.339844 185.390625 25.472656 184.824219 25.628906 184.265625 C 25.789062 183.707031 25.976562 183.160156 26.1875 182.621094 C 26.402344 182.082031 26.640625 181.550781 26.90625 181.035156 C 27.171875 180.519531 27.460938 180.015625 27.773438 179.53125 C 28.089844 179.042969 28.425781 178.570312 28.785156 178.117188 C 29.148438 177.660156 29.527344 177.222656 29.933594 176.808594 C 30.335938 176.390625 30.757812 175.992188 31.199219 175.617188 C 31.640625 175.242188 32.101562 174.886719 32.578125 174.554688 C 33.054688 174.226562 33.546875 173.917969 34.054688 173.636719 C 34.5625 173.355469 35.082031 173.097656 35.613281 172.863281 C 36.144531 172.632812 36.6875 172.429688 37.238281 172.25 C 37.792969 172.070312 38.351562 171.921875 38.917969 171.796875 C 39.484375 171.671875 40.058594 171.578125 40.632812 171.511719 C 41.210938 171.441406 41.789062 171.402344 42.371094 171.394531 C 42.949219 171.382812 43.527344 171.398438 44.109375 171.445312 C 44.753906 171.5 45.394531 171.585938 46.03125 171.707031 C 46.667969 171.832031 47.296875 171.988281 47.917969 172.179688 C 48.539062 172.371094 49.144531 172.597656 49.738281 172.855469 C 50.335938 173.113281 50.914062 173.402344 51.476562 173.722656 C 52.039062 174.046875 52.582031 174.398438 53.109375 174.777344 C 53.632812 175.160156 54.136719 175.570312 54.613281 176.007812 C 55.09375 176.441406 55.546875 176.902344 55.976562 177.390625 C 56.40625 177.878906 56.808594 178.386719 57.179688 178.914062 C 57.554688 179.445312 57.898438 179.996094 58.210938 180.5625 C 58.523438 181.132812 58.804688 181.714844 59.050781 182.3125 C 59.300781 182.914062 59.515625 183.523438 59.699219 184.144531 C 59.878906 184.769531 60.027344 185.398438 60.140625 186.039062 C 60.25 186.675781 60.328125 187.320312 60.371094 187.964844 C 60.414062 188.613281 60.417969 189.261719 60.390625 189.90625 C 60.359375 190.554688 60.296875 191.199219 60.195312 191.839844 C 60.097656 192.480469 59.960938 193.113281 59.792969 193.742188 L 46.042969 244.546875 L 62.367188 287.535156 L 49.808594 295.199219 Z M 20.234375 246.773438 " fill-opacity="1" fill-rule="nonzero"/><path fill="#2f2e41" d="M 1.445312 160.203125 L 62.214844 147.78125 C 63.890625 142.199219 67.09375 137.074219 58.246094 128.359375 C 58.074219 127.53125 57.867188 126.714844 57.617188 125.90625 C 57.371094 125.097656 57.085938 124.300781 56.761719 123.519531 C 56.433594 122.738281 56.074219 121.976562 55.675781 121.230469 C 55.277344 120.484375 54.847656 119.757812 54.378906 119.054688 C 53.910156 118.347656 53.410156 117.667969 52.878906 117.011719 C 52.347656 116.355469 51.78125 115.722656 51.191406 115.121094 C 50.597656 114.519531 49.976562 113.945312 49.328125 113.402344 C 48.679688 112.859375 48.007812 112.347656 47.308594 111.871094 C 46.613281 111.390625 45.894531 110.949219 45.152344 110.539062 C 44.414062 110.128906 43.65625 109.753906 42.878906 109.417969 C 42.101562 109.082031 41.3125 108.78125 40.507812 108.519531 C 39.703125 108.261719 38.886719 108.039062 38.0625 107.855469 C 37.238281 107.671875 36.402344 107.53125 35.5625 107.425781 C 34.726562 107.324219 33.882812 107.261719 33.035156 107.242188 C 32.191406 107.21875 31.347656 107.238281 30.503906 107.296875 C 29.660156 107.355469 28.820312 107.453125 27.984375 107.59375 C 14.035156 106.355469 6.199219 116.265625 6.242188 129.566406 Z M 1.445312 160.203125 " fill-opacity="1" fill-rule="nonzero"/><path fill="#ffb8b8" d="M 57.539062 131.15625 C 57.539062 131.835938 57.507812 132.507812 57.441406 133.183594 C 57.375 133.855469 57.273438 134.523438 57.140625 135.1875 C 57.011719 135.851562 56.847656 136.503906 56.648438 137.152344 C 56.453125 137.800781 56.226562 138.4375 55.964844 139.058594 C 55.707031 139.683594 55.417969 140.296875 55.101562 140.890625 C 54.78125 141.488281 54.433594 142.070312 54.058594 142.628906 C 53.683594 143.191406 53.28125 143.734375 52.851562 144.257812 C 52.421875 144.78125 51.96875 145.28125 51.488281 145.761719 C 51.011719 146.238281 50.507812 146.691406 49.988281 147.121094 C 49.464844 147.550781 48.921875 147.953125 48.359375 148.328125 C 47.796875 148.703125 47.214844 149.050781 46.621094 149.371094 C 46.023438 149.6875 45.414062 149.976562 44.789062 150.238281 C 44.164062 150.496094 43.527344 150.722656 42.878906 150.917969 C 42.230469 151.117188 41.574219 151.28125 40.910156 151.410156 C 40.25 151.542969 39.582031 151.644531 38.90625 151.710938 C 38.234375 151.777344 37.558594 151.808594 36.882812 151.808594 C 36.207031 151.808594 35.53125 151.777344 34.859375 151.710938 C 34.183594 151.644531 33.515625 151.542969 32.851562 151.410156 C 32.1875 151.28125 31.53125 151.117188 30.886719 150.917969 C 30.238281 150.722656 29.601562 150.496094 28.976562 150.238281 C 28.351562 149.976562 27.742188 149.6875 27.144531 149.371094 C 26.546875 149.050781 25.96875 148.703125 25.40625 148.328125 C 24.84375 147.953125 24.300781 147.550781 23.777344 147.121094 C 23.253906 146.691406 22.753906 146.238281 22.277344 145.761719 C 21.796875 145.28125 21.34375 144.78125 20.914062 144.257812 C 20.484375 143.734375 20.082031 143.191406 19.707031 142.628906 C 19.332031 142.070312 18.984375 141.488281 18.664062 140.890625 C 18.34375 140.296875 18.054688 139.683594 17.796875 139.058594 C 17.539062 138.4375 17.3125 137.800781 17.113281 137.152344 C 16.917969 136.503906 16.753906 135.851562 16.621094 135.1875 C 16.488281 134.523438 16.390625 133.855469 16.324219 133.183594 C 16.257812 132.507812 16.226562 131.835938 16.226562 131.15625 C 16.226562 130.480469 16.257812 129.804688 16.324219 129.132812 C 16.390625 128.460938 16.488281 127.792969 16.621094 127.128906 C 16.753906 126.464844 16.917969 125.808594 17.113281 125.164062 C 17.3125 124.515625 17.539062 123.878906 17.796875 123.253906 C 18.054688 122.628906 18.34375 122.019531 18.664062 121.421875 C 18.984375 120.828125 19.332031 120.246094 19.707031 119.683594 C 20.082031 119.121094 20.484375 118.578125 20.914062 118.054688 C 21.34375 117.535156 21.796875 117.035156 22.277344 116.554688 C 22.753906 116.078125 23.253906 115.625 23.777344 115.195312 C 24.300781 114.765625 24.84375 114.363281 25.40625 113.988281 C 25.96875 113.609375 26.546875 113.261719 27.144531 112.945312 C 27.742188 112.625 28.351562 112.335938 28.976562 112.078125 C 29.601562 111.820312 30.238281 111.59375 30.886719 111.394531 C 31.53125 111.199219 32.1875 111.035156 32.851562 110.902344 C 33.515625 110.769531 34.183594 110.671875 34.859375 110.605469 C 35.53125 110.539062 36.207031 110.507812 36.882812 110.507812 C 37.558594 110.507812 38.234375 110.539062 38.90625 110.605469 C 39.582031 110.671875 40.25 110.769531 40.910156 110.902344 C 41.574219 111.035156 42.230469 111.199219 42.878906 111.394531 C 43.527344 111.59375 44.164062 111.820312 44.789062 112.078125 C 45.414062 112.335938 46.023438 112.625 46.621094 112.945312 C 47.214844 113.261719 47.796875 113.609375 48.359375 113.988281 C 48.921875 114.363281 49.464844 114.765625 49.988281 115.195312 C 50.507812 115.625 51.011719 116.078125 51.488281 116.554688 C 51.96875 117.035156 52.421875 117.535156 52.851562 118.054688 C 53.28125 118.578125 53.683594 119.121094 54.058594 119.683594 C 54.433594 120.246094 54.78125 120.828125 55.101562 121.421875 C 55.417969 122.019531 55.707031 122.628906 55.964844 123.253906 C 56.226562 123.878906 56.453125 124.515625 56.648438 125.164062 C 56.847656 125.808594 57.011719 126.464844 57.140625 127.128906 C 57.273438 127.792969 57.375 128.460938 57.441406 129.132812 C 57.507812 129.804688 57.539062 130.480469 57.539062 131.15625 Z M 57.539062 131.15625 " fill-opacity="1" fill-rule="nonzero"/><g clip-path="url(#75cc100782)"><path fill="#2f2e41" d="M 21.308594 113.878906 C 22.703125 111.792969 24.441406 110.050781 26.527344 108.652344 C 28.609375 107.253906 30.878906 106.304688 33.339844 105.804688 L 37.234375 105.007812 C 37.847656 104.882812 38.464844 104.789062 39.085938 104.726562 C 39.707031 104.660156 40.332031 104.625 40.957031 104.625 C 41.582031 104.621094 42.207031 104.648438 42.828125 104.707031 C 43.449219 104.761719 44.070312 104.851562 44.683594 104.96875 C 45.296875 105.089844 45.902344 105.238281 46.5 105.414062 C 47.101562 105.59375 47.691406 105.800781 48.269531 106.035156 C 48.847656 106.273438 49.414062 106.535156 49.964844 106.828125 C 50.519531 107.121094 51.054688 107.4375 51.578125 107.78125 C 52.097656 108.125 52.601562 108.496094 53.085938 108.890625 C 53.574219 109.285156 54.039062 109.699219 54.480469 110.140625 C 54.925781 110.578125 55.347656 111.039062 55.746094 111.519531 C 56.144531 112 56.519531 112.5 56.871094 113.019531 C 57.222656 113.535156 57.542969 114.070312 57.84375 114.621094 C 58.140625 115.167969 58.410156 115.730469 58.652344 116.308594 C 58.894531 116.882812 59.109375 117.46875 59.292969 118.066406 C 59.476562 118.664062 59.632812 119.269531 59.757812 119.882812 C 56.957031 123.527344 40.363281 126.285156 30.46875 127.492188 C 33.238281 137.484375 43.890625 145.683594 42.738281 151.761719 L 3.78125 159.722656 L 2.988281 155.828125 C -3.847656 139.398438 5.683594 122.578125 21.308594 113.878906 Z M 21.308594 113.878906 " fill-opacity="1" fill-rule="nonzero"/></g><path fill="#2f2e41" d="M 1.277344 161.3125 L 62.046875 148.890625 C 63.722656 143.3125 66.925781 138.1875 58.078125 129.472656 C 57.90625 128.644531 57.699219 127.824219 57.449219 127.015625 C 57.203125 126.207031 56.914062 125.414062 56.589844 124.632812 C 56.265625 123.851562 55.90625 123.085938 55.507812 122.339844 C 55.109375 121.59375 54.679688 120.871094 54.210938 120.164062 C 53.742188 119.460938 53.242188 118.777344 52.710938 118.121094 C 52.175781 117.464844 51.613281 116.835938 51.019531 116.234375 C 50.429688 115.628906 49.808594 115.058594 49.160156 114.515625 C 48.511719 113.972656 47.835938 113.460938 47.140625 112.980469 C 46.441406 112.503906 45.722656 112.058594 44.984375 111.648438 C 44.242188 111.238281 43.484375 110.867188 42.710938 110.53125 C 41.933594 110.191406 41.144531 109.894531 40.339844 109.632812 C 39.535156 109.371094 38.71875 109.148438 37.894531 108.96875 C 37.066406 108.785156 36.234375 108.640625 35.394531 108.539062 C 34.554688 108.4375 33.714844 108.375 32.867188 108.351562 C 32.023438 108.328125 31.175781 108.347656 30.332031 108.40625 C 29.488281 108.46875 28.652344 108.566406 27.816406 108.707031 C 13.867188 107.464844 6.03125 117.375 6.070312 130.679688 Z M 1.277344 161.3125 " fill-opacity="1" fill-rule="nonzero"/><path fill="#ffb8b8" d="M 57.371094 132.269531 C 57.371094 132.945312 57.335938 133.621094 57.269531 134.292969 C 57.203125 134.964844 57.105469 135.632812 56.972656 136.296875 C 56.839844 136.960938 56.675781 137.617188 56.480469 138.265625 C 56.285156 138.910156 56.058594 139.546875 55.796875 140.171875 C 55.539062 140.796875 55.25 141.40625 54.929688 142.003906 C 54.613281 142.601562 54.265625 143.179688 53.890625 143.742188 C 53.511719 144.304688 53.109375 144.847656 52.679688 145.371094 C 52.253906 145.894531 51.796875 146.394531 51.320312 146.871094 C 50.839844 147.351562 50.339844 147.804688 49.816406 148.234375 C 49.296875 148.660156 48.753906 149.0625 48.191406 149.441406 C 47.628906 149.816406 47.046875 150.164062 46.449219 150.480469 C 45.855469 150.800781 45.242188 151.089844 44.617188 151.347656 C 43.992188 151.605469 43.355469 151.835938 42.710938 152.03125 C 42.0625 152.226562 41.40625 152.390625 40.742188 152.523438 C 40.078125 152.65625 39.410156 152.753906 38.738281 152.820312 C 38.066406 152.886719 37.390625 152.921875 36.714844 152.921875 C 36.035156 152.921875 35.363281 152.886719 34.6875 152.820312 C 34.015625 152.753906 33.347656 152.65625 32.683594 152.523438 C 32.019531 152.390625 31.363281 152.226562 30.71875 152.03125 C 30.070312 151.835938 29.433594 151.605469 28.808594 151.347656 C 28.183594 151.089844 27.574219 150.800781 26.976562 150.480469 C 26.378906 150.164062 25.800781 149.816406 25.238281 149.441406 C 24.675781 149.0625 24.132812 148.660156 23.609375 148.234375 C 23.085938 147.804688 22.585938 147.351562 22.105469 146.871094 C 21.628906 146.394531 21.175781 145.894531 20.746094 145.371094 C 20.316406 144.847656 19.914062 144.304688 19.539062 143.742188 C 19.164062 143.179688 18.816406 142.601562 18.496094 142.003906 C 18.175781 141.40625 17.886719 140.796875 17.628906 140.171875 C 17.371094 139.546875 17.140625 138.910156 16.945312 138.265625 C 16.75 137.617188 16.585938 136.960938 16.453125 136.296875 C 16.320312 135.632812 16.222656 134.964844 16.15625 134.292969 C 16.089844 133.621094 16.058594 132.945312 16.058594 132.269531 C 16.058594 131.59375 16.089844 130.917969 16.15625 130.246094 C 16.222656 129.570312 16.320312 128.902344 16.453125 128.238281 C 16.585938 127.578125 16.75 126.921875 16.945312 126.273438 C 17.140625 125.628906 17.371094 124.992188 17.628906 124.367188 C 17.886719 123.742188 18.175781 123.128906 18.496094 122.535156 C 18.816406 121.9375 19.164062 121.359375 19.539062 120.796875 C 19.914062 120.234375 20.316406 119.691406 20.746094 119.167969 C 21.175781 118.644531 21.628906 118.144531 22.105469 117.667969 C 22.585938 117.1875 23.085938 116.734375 23.609375 116.304688 C 24.132812 115.875 24.675781 115.472656 25.238281 115.097656 C 25.800781 114.722656 26.378906 114.375 26.976562 114.054688 C 27.574219 113.738281 28.183594 113.449219 28.808594 113.191406 C 29.433594 112.929688 30.070312 112.703125 30.71875 112.507812 C 31.363281 112.3125 32.019531 112.148438 32.683594 112.015625 C 33.347656 111.882812 34.015625 111.785156 34.6875 111.71875 C 35.363281 111.652344 36.035156 111.617188 36.714844 111.617188 C 37.390625 111.617188 38.066406 111.652344 38.738281 111.71875 C 39.410156 111.785156 40.078125 111.882812 40.742188 112.015625 C 41.40625 112.148438 42.0625 112.3125 42.710938 112.507812 C 43.355469 112.703125 43.992188 112.929688 44.617188 113.191406 C 45.242188 113.449219 45.855469 113.738281 46.449219 114.054688 C 47.046875 114.375 47.628906 114.722656 48.191406 115.097656 C 48.753906 115.472656 49.296875 115.875 49.816406 116.304688 C 50.339844 116.734375 50.839844 117.1875 51.320312 117.667969 C 51.796875 118.144531 52.253906 118.644531 52.679688 119.167969 C 53.109375 119.691406 53.511719 120.234375 53.890625 120.796875 C 54.265625 121.359375 54.613281 121.9375 54.929688 122.535156 C 55.25 123.128906 55.539062 123.742188 55.796875 124.367188 C 56.058594 124.992188 56.285156 125.628906 56.480469 126.273438 C 56.675781 126.921875 56.839844 127.578125 56.972656 128.238281 C 57.105469 128.902344 57.203125 129.570312 57.269531 130.246094 C 57.335938 130.917969 57.371094 131.59375 57.371094 132.269531 Z M 57.371094 132.269531 " fill-opacity="1" fill-rule="nonzero"/><g clip-path="url(#d06b44cef0)"><path fill="#2f2e41" d="M 21.140625 114.992188 C 22.535156 112.90625 24.273438 111.164062 26.355469 109.765625 C 28.441406 108.367188 30.710938 107.417969 33.171875 106.917969 L 37.066406 106.121094 C 37.679688 105.996094 38.296875 105.902344 38.917969 105.835938 C 39.539062 105.773438 40.164062 105.738281 40.789062 105.734375 C 41.414062 105.730469 42.039062 105.757812 42.660156 105.816406 C 43.28125 105.875 43.898438 105.960938 44.515625 106.082031 C 45.128906 106.199219 45.734375 106.347656 46.332031 106.527344 C 46.933594 106.703125 47.519531 106.914062 48.101562 107.148438 C 48.679688 107.382812 49.246094 107.648438 49.796875 107.941406 C 50.351562 108.230469 50.886719 108.550781 51.410156 108.894531 C 51.929688 109.238281 52.433594 109.605469 52.917969 110 C 53.40625 110.394531 53.871094 110.8125 54.3125 111.25 C 54.757812 111.691406 55.179688 112.152344 55.578125 112.632812 C 55.976562 113.113281 56.351562 113.613281 56.703125 114.128906 C 57.050781 114.648438 57.375 115.179688 57.675781 115.730469 C 57.972656 116.28125 58.242188 116.84375 58.484375 117.417969 C 58.726562 117.996094 58.9375 118.582031 59.125 119.179688 C 59.308594 119.777344 59.464844 120.378906 59.589844 120.992188 C 56.789062 124.636719 40.195312 127.398438 30.300781 128.601562 C 33.070312 138.59375 43.722656 146.796875 42.570312 152.871094 L 3.613281 160.835938 L 2.816406 156.941406 C -4.015625 140.507812 5.515625 123.691406 21.140625 114.992188 Z M 21.140625 114.992188 " fill-opacity="1" fill-rule="nonzero"/></g><path fill="#f0f0f0" d="M 321.402344 310.144531 L 163.839844 310.144531 C 163.300781 310.144531 162.761719 310.117188 162.226562 310.066406 C 161.691406 310.011719 161.15625 309.933594 160.628906 309.824219 C 160.097656 309.71875 159.578125 309.589844 159.0625 309.433594 C 158.546875 309.277344 158.039062 309.09375 157.539062 308.886719 C 157.042969 308.679688 156.554688 308.449219 156.082031 308.195312 C 155.605469 307.941406 155.144531 307.664062 154.695312 307.367188 C 154.246094 307.066406 153.816406 306.746094 153.398438 306.402344 C 152.980469 306.0625 152.582031 305.699219 152.203125 305.320312 C 151.820312 304.9375 151.457031 304.539062 151.117188 304.121094 C 150.773438 303.707031 150.453125 303.273438 150.152344 302.824219 C 149.855469 302.378906 149.578125 301.914062 149.324219 301.441406 C 149.070312 300.964844 148.839844 300.476562 148.632812 299.980469 C 148.425781 299.484375 148.242188 298.976562 148.085938 298.460938 C 147.929688 297.945312 147.796875 297.421875 147.691406 296.894531 C 147.585938 296.367188 147.507812 295.832031 147.453125 295.296875 C 147.402344 294.761719 147.375 294.222656 147.375 293.683594 L 147.375 88.101562 C 147.375 87.5625 147.402344 87.027344 147.453125 86.488281 C 147.507812 85.953125 147.585938 85.421875 147.691406 84.890625 C 147.796875 84.363281 147.929688 83.84375 148.085938 83.328125 C 148.242188 82.8125 148.425781 82.304688 148.632812 81.804688 C 148.839844 81.308594 149.070312 80.820312 149.324219 80.347656 C 149.578125 79.871094 149.855469 79.410156 150.152344 78.960938 C 150.453125 78.515625 150.773438 78.082031 151.117188 77.664062 C 151.457031 77.25 151.820312 76.847656 152.203125 76.46875 C 152.582031 76.085938 152.980469 75.726562 153.398438 75.382812 C 153.816406 75.042969 154.246094 74.722656 154.695312 74.421875 C 155.144531 74.121094 155.605469 73.84375 156.082031 73.589844 C 156.554688 73.335938 157.042969 73.105469 157.542969 72.898438 C 158.039062 72.691406 158.546875 72.511719 159.0625 72.355469 C 159.578125 72.199219 160.101562 72.066406 160.628906 71.960938 C 161.15625 71.855469 161.691406 71.777344 162.226562 71.722656 C 162.761719 71.667969 163.300781 71.640625 163.839844 71.640625 L 321.402344 71.640625 C 321.941406 71.640625 322.476562 71.667969 323.015625 71.722656 C 323.550781 71.777344 324.082031 71.855469 324.613281 71.960938 C 325.140625 72.066406 325.664062 72.199219 326.179688 72.355469 C 326.695312 72.511719 327.199219 72.691406 327.699219 72.898438 C 328.195312 73.105469 328.683594 73.335938 329.160156 73.589844 C 329.632812 73.84375 330.097656 74.121094 330.542969 74.421875 C 330.992188 74.722656 331.425781 75.042969 331.839844 75.382812 C 332.257812 75.726562 332.65625 76.085938 333.039062 76.46875 C 333.417969 76.847656 333.78125 77.25 334.125 77.664062 C 334.464844 78.082031 334.785156 78.515625 335.085938 78.960938 C 335.386719 79.410156 335.664062 79.871094 335.917969 80.347656 C 336.171875 80.820312 336.402344 81.308594 336.609375 81.804688 C 336.816406 82.304688 336.996094 82.8125 337.152344 83.328125 C 337.308594 83.84375 337.441406 84.363281 337.546875 84.890625 C 337.652344 85.421875 337.730469 85.953125 337.785156 86.488281 C 337.839844 87.027344 337.867188 87.5625 337.867188 88.101562 L 337.867188 293.683594 C 337.867188 294.222656 337.839844 294.761719 337.785156 295.296875 C 337.730469 295.832031 337.652344 296.367188 337.546875 296.894531 C 337.441406 297.421875 337.308594 297.945312 337.152344 298.460938 C 336.996094 298.976562 336.816406 299.484375 336.609375 299.980469 C 336.402344 300.476562 336.171875 300.964844 335.917969 301.441406 C 335.664062 301.914062 335.386719 302.378906 335.085938 302.824219 C 334.785156 303.273438 334.464844 303.707031 334.125 304.121094 C 333.78125 304.539062 333.417969 304.9375 333.039062 305.320312 C 332.65625 305.699219 332.257812 306.0625 331.839844 306.402344 C 331.425781 306.746094 330.992188 307.066406 330.542969 307.367188 C 330.097656 307.664062 329.632812 307.941406 329.160156 308.195312 C 328.683594 308.449219 328.195312 308.679688 327.699219 308.886719 C 327.199219 309.09375 326.695312 309.277344 326.179688 309.433594 C 325.664062 309.589844 325.140625 309.71875 324.613281 309.824219 C 324.082031 309.933594 323.550781 310.011719 323.015625 310.066406 C 322.476562 310.117188 321.941406 310.144531 321.402344 310.144531 Z M 321.402344 310.144531 " fill-opacity="1" fill-rule="nonzero"/><path fill="#065a60" d="M 321.402344 310.941406 L 163.839844 310.941406 C 163.273438 310.941406 162.710938 310.910156 162.148438 310.855469 C 161.585938 310.800781 161.027344 310.714844 160.472656 310.605469 C 159.917969 310.496094 159.371094 310.355469 158.832031 310.191406 C 158.289062 310.027344 157.757812 309.835938 157.238281 309.621094 C 156.714844 309.40625 156.203125 309.164062 155.707031 308.898438 C 155.207031 308.628906 154.722656 308.339844 154.253906 308.027344 C 153.785156 307.710938 153.332031 307.375 152.894531 307.015625 C 152.457031 306.660156 152.039062 306.28125 151.640625 305.878906 C 151.238281 305.480469 150.859375 305.0625 150.503906 304.625 C 150.144531 304.1875 149.808594 303.734375 149.492188 303.265625 C 149.179688 302.796875 148.890625 302.3125 148.621094 301.8125 C 148.355469 301.316406 148.113281 300.804688 147.898438 300.285156 C 147.679688 299.761719 147.492188 299.230469 147.324219 298.691406 C 147.160156 298.148438 147.023438 297.601562 146.914062 297.050781 C 146.800781 296.496094 146.71875 295.9375 146.664062 295.375 C 146.605469 294.8125 146.578125 294.25 146.578125 293.683594 L 146.578125 88.101562 C 146.578125 87.539062 146.605469 86.972656 146.664062 86.410156 C 146.71875 85.851562 146.800781 85.292969 146.914062 84.738281 C 147.023438 84.183594 147.160156 83.636719 147.324219 83.097656 C 147.492188 82.554688 147.679688 82.023438 147.898438 81.503906 C 148.113281 80.980469 148.355469 80.46875 148.621094 79.972656 C 148.890625 79.472656 149.179688 78.988281 149.492188 78.519531 C 149.808594 78.050781 150.144531 77.597656 150.503906 77.160156 C 150.859375 76.722656 151.238281 76.304688 151.640625 75.90625 C 152.039062 75.507812 152.457031 75.128906 152.894531 74.769531 C 153.332031 74.410156 153.785156 74.074219 154.253906 73.761719 C 154.722656 73.445312 155.207031 73.15625 155.707031 72.890625 C 156.203125 72.625 156.714844 72.382812 157.238281 72.164062 C 157.757812 71.949219 158.289062 71.757812 158.832031 71.59375 C 159.371094 71.429688 159.917969 71.292969 160.472656 71.179688 C 161.027344 71.070312 161.585938 70.988281 162.148438 70.929688 C 162.710938 70.875 163.273438 70.847656 163.839844 70.847656 L 321.402344 70.847656 C 321.964844 70.847656 322.53125 70.875 323.09375 70.929688 C 323.652344 70.988281 324.210938 71.070312 324.765625 71.179688 C 325.320312 71.292969 325.867188 71.429688 326.410156 71.59375 C 326.949219 71.757812 327.480469 71.949219 328.003906 72.164062 C 328.523438 72.382812 329.035156 72.625 329.535156 72.890625 C 330.03125 73.15625 330.515625 73.445312 330.984375 73.761719 C 331.457031 74.074219 331.910156 74.410156 332.34375 74.769531 C 332.78125 75.128906 333.199219 75.507812 333.601562 75.90625 C 334 76.304688 334.378906 76.722656 334.738281 77.160156 C 335.097656 77.597656 335.433594 78.050781 335.746094 78.519531 C 336.0625 78.988281 336.351562 79.472656 336.617188 79.972656 C 336.882812 80.46875 337.125 80.980469 337.34375 81.503906 C 337.558594 82.023438 337.75 82.554688 337.914062 83.09375 C 338.078125 83.636719 338.214844 84.183594 338.328125 84.738281 C 338.4375 85.292969 338.519531 85.851562 338.578125 86.410156 C 338.632812 86.972656 338.660156 87.539062 338.660156 88.101562 L 338.660156 293.683594 C 338.660156 294.25 338.632812 294.8125 338.578125 295.375 C 338.519531 295.9375 338.4375 296.496094 338.328125 297.050781 C 338.214844 297.601562 338.078125 298.148438 337.914062 298.691406 C 337.75 299.230469 337.558594 299.761719 337.34375 300.285156 C 337.125 300.804688 336.882812 301.316406 336.617188 301.8125 C 336.351562 302.3125 336.0625 302.796875 335.746094 303.265625 C 335.433594 303.734375 335.097656 304.1875 334.738281 304.625 C 334.378906 305.0625 334 305.480469 333.601562 305.878906 C 333.199219 306.28125 332.78125 306.660156 332.347656 307.015625 C 331.910156 307.375 331.457031 307.710938 330.984375 308.027344 C 330.515625 308.339844 330.03125 308.628906 329.535156 308.898438 C 329.035156 309.164062 328.523438 309.40625 328.003906 309.621094 C 327.480469 309.839844 326.949219 310.027344 326.410156 310.191406 C 325.867188 310.355469 325.320312 310.496094 324.765625 310.605469 C 324.210938 310.714844 323.65625 310.800781 323.09375 310.855469 C 322.53125 310.910156 321.964844 310.941406 321.402344 310.941406 Z M 163.839844 72.4375 C 162.8125 72.4375 161.792969 72.539062 160.785156 72.742188 C 159.773438 72.941406 158.796875 73.238281 157.84375 73.632812 C 156.894531 74.027344 155.992188 74.511719 155.136719 75.082031 C 154.28125 75.652344 153.492188 76.304688 152.765625 77.03125 C 152.035156 77.757812 151.386719 78.546875 150.816406 79.402344 C 150.242188 80.257812 149.761719 81.160156 149.367188 82.109375 C 148.972656 83.058594 148.675781 84.039062 148.472656 85.046875 C 148.269531 86.054688 148.171875 87.074219 148.167969 88.101562 L 148.167969 293.683594 C 148.171875 294.710938 148.269531 295.730469 148.472656 296.738281 C 148.675781 297.746094 148.972656 298.726562 149.367188 299.675781 C 149.761719 300.625 150.242188 301.527344 150.816406 302.382812 C 151.386719 303.238281 152.035156 304.027344 152.765625 304.757812 C 153.492188 305.484375 154.28125 306.132812 155.136719 306.703125 C 155.992188 307.277344 156.894531 307.757812 157.84375 308.152344 C 158.796875 308.546875 159.773438 308.84375 160.785156 309.046875 C 161.792969 309.246094 162.8125 309.347656 163.839844 309.351562 L 321.402344 309.351562 C 322.429688 309.347656 323.449219 309.246094 324.457031 309.046875 C 325.464844 308.84375 326.445312 308.546875 327.394531 308.152344 C 328.34375 307.757812 329.246094 307.277344 330.101562 306.703125 C 330.957031 306.132812 331.75 305.484375 332.476562 304.757812 C 333.203125 304.03125 333.851562 303.238281 334.425781 302.382812 C 334.996094 301.527344 335.480469 300.625 335.875 299.675781 C 336.269531 298.726562 336.566406 297.746094 336.765625 296.738281 C 336.96875 295.730469 337.070312 294.710938 337.070312 293.683594 L 337.070312 88.101562 C 337.070312 87.074219 336.96875 86.054688 336.765625 85.046875 C 336.566406 84.039062 336.269531 83.058594 335.875 82.109375 C 335.480469 81.160156 334.996094 80.257812 334.425781 79.402344 C 333.851562 78.546875 333.203125 77.757812 332.476562 77.03125 C 331.75 76.304688 330.957031 75.652344 330.101562 75.082031 C 329.246094 74.511719 328.34375 74.027344 327.394531 73.632812 C 326.445312 73.238281 325.464844 72.941406 324.457031 72.742188 C 323.449219 72.539062 322.429688 72.4375 321.402344 72.4375 Z M 163.839844 72.4375 " fill-opacity="1" fill-rule="nonzero"/><path fill="#f0f0f0" d="M 577.371094 310.144531 L 419.808594 310.144531 C 419.269531 310.144531 418.730469 310.117188 418.195312 310.066406 C 417.660156 310.011719 417.125 309.933594 416.597656 309.824219 C 416.070312 309.71875 415.546875 309.589844 415.03125 309.433594 C 414.515625 309.277344 414.007812 309.09375 413.511719 308.886719 C 413.011719 308.679688 412.527344 308.449219 412.050781 308.195312 C 411.574219 307.941406 411.113281 307.664062 410.664062 307.367188 C 410.21875 307.066406 409.785156 306.746094 409.367188 306.402344 C 408.953125 306.0625 408.550781 305.699219 408.171875 305.320312 C 407.789062 304.9375 407.429688 304.539062 407.085938 304.121094 C 406.742188 303.707031 406.421875 303.273438 406.125 302.824219 C 405.824219 302.378906 405.546875 301.914062 405.292969 301.441406 C 405.039062 300.964844 404.808594 300.476562 404.601562 299.980469 C 404.394531 299.484375 404.214844 298.976562 404.054688 298.460938 C 403.898438 297.945312 403.769531 297.421875 403.664062 296.894531 C 403.558594 296.367188 403.476562 295.832031 403.425781 295.296875 C 403.371094 294.761719 403.34375 294.222656 403.34375 293.683594 L 403.34375 88.101562 C 403.34375 87.5625 403.371094 87.027344 403.425781 86.488281 C 403.476562 85.953125 403.558594 85.421875 403.664062 84.890625 C 403.769531 84.363281 403.898438 83.84375 404.054688 83.328125 C 404.214844 82.8125 404.394531 82.304688 404.601562 81.804688 C 404.808594 81.308594 405.039062 80.820312 405.292969 80.347656 C 405.546875 79.871094 405.824219 79.410156 406.125 78.960938 C 406.421875 78.511719 406.746094 78.082031 407.085938 77.664062 C 407.429688 77.25 407.789062 76.847656 408.171875 76.46875 C 408.550781 76.085938 408.953125 75.726562 409.367188 75.382812 C 409.785156 75.042969 410.21875 74.722656 410.664062 74.421875 C 411.113281 74.121094 411.574219 73.84375 412.050781 73.589844 C 412.527344 73.335938 413.011719 73.105469 413.511719 72.898438 C 414.007812 72.691406 414.515625 72.511719 415.03125 72.355469 C 415.546875 72.199219 416.070312 72.066406 416.597656 71.960938 C 417.125 71.855469 417.660156 71.777344 418.195312 71.722656 C 418.730469 71.667969 419.269531 71.640625 419.808594 71.640625 L 577.371094 71.640625 C 577.910156 71.640625 578.445312 71.667969 578.984375 71.722656 C 579.519531 71.777344 580.050781 71.855469 580.582031 71.960938 C 581.109375 72.066406 581.632812 72.199219 582.148438 72.355469 C 582.664062 72.511719 583.171875 72.691406 583.667969 72.898438 C 584.167969 73.105469 584.652344 73.335938 585.128906 73.589844 C 585.605469 73.84375 586.066406 74.121094 586.515625 74.421875 C 586.960938 74.722656 587.394531 75.042969 587.8125 75.382812 C 588.226562 75.726562 588.625 76.085938 589.007812 76.46875 C 589.390625 76.847656 589.75 77.25 590.09375 77.664062 C 590.433594 78.082031 590.753906 78.511719 591.054688 78.960938 C 591.355469 79.410156 591.632812 79.871094 591.886719 80.347656 C 592.140625 80.820312 592.371094 81.308594 592.578125 81.804688 C 592.785156 82.304688 592.964844 82.8125 593.121094 83.328125 C 593.28125 83.84375 593.410156 84.363281 593.515625 84.890625 C 593.621094 85.421875 593.703125 85.953125 593.753906 86.488281 C 593.808594 87.027344 593.835938 87.5625 593.835938 88.101562 L 593.835938 293.683594 C 593.835938 294.222656 593.808594 294.761719 593.753906 295.296875 C 593.703125 295.832031 593.621094 296.367188 593.515625 296.894531 C 593.410156 297.421875 593.28125 297.945312 593.121094 298.460938 C 592.964844 298.976562 592.785156 299.484375 592.578125 299.980469 C 592.371094 300.476562 592.140625 300.964844 591.886719 301.441406 C 591.632812 301.914062 591.355469 302.378906 591.054688 302.824219 C 590.753906 303.273438 590.433594 303.707031 590.09375 304.121094 C 589.75 304.539062 589.390625 304.9375 589.007812 305.320312 C 588.625 305.699219 588.226562 306.0625 587.8125 306.402344 C 587.394531 306.746094 586.960938 307.066406 586.515625 307.367188 C 586.066406 307.664062 585.605469 307.941406 585.128906 308.195312 C 584.652344 308.449219 584.167969 308.679688 583.667969 308.886719 C 583.171875 309.09375 582.664062 309.277344 582.148438 309.433594 C 581.632812 309.589844 581.109375 309.71875 580.582031 309.824219 C 580.050781 309.933594 579.519531 310.011719 578.984375 310.066406 C 578.445312 310.117188 577.910156 310.144531 577.371094 310.144531 Z M 577.371094 310.144531 " fill-opacity="1" fill-rule="nonzero"/><path fill="#d1d3d4" d="M 586.355469 67.902344 L 586.339844 67.917969 C 585.964844 67.53125 585.554688 67.1875 585.109375 66.882812 C 584.667969 66.578125 584.199219 66.316406 583.703125 66.097656 C 583.210938 65.882812 582.703125 65.714844 582.175781 65.597656 C 581.652344 65.476562 581.121094 65.410156 580.582031 65.390625 C 580.042969 65.371094 579.507812 65.40625 578.976562 65.492188 C 578.445312 65.574219 577.925781 65.707031 577.417969 65.890625 C 576.914062 66.074219 576.429688 66.304688 575.964844 66.582031 C 575.503906 66.855469 575.070312 67.175781 574.671875 67.53125 C 574.269531 67.890625 573.902344 68.285156 573.578125 68.710938 C 573.25 69.140625 572.964844 69.59375 572.726562 70.078125 C 572.484375 70.558594 572.292969 71.058594 572.148438 71.578125 C 572.003906 72.09375 571.910156 72.625 571.867188 73.160156 C 571.820312 73.695312 571.828125 74.230469 571.886719 74.765625 C 571.945312 75.304688 572.054688 75.828125 572.214844 76.34375 C 572.371094 76.855469 572.578125 77.351562 572.832031 77.828125 C 573.082031 78.300781 573.378906 78.75 573.71875 79.167969 L 573.703125 79.183594 L 584.984375 91.835938 L 597.640625 80.554688 C 598.054688 80.183594 598.429688 79.777344 598.765625 79.332031 C 599.097656 78.886719 599.386719 78.414062 599.628906 77.914062 C 599.871094 77.414062 600.0625 76.894531 600.199219 76.355469 C 600.339844 75.816406 600.425781 75.269531 600.457031 74.714844 C 600.488281 74.160156 600.464844 73.605469 600.386719 73.054688 C 600.3125 72.503906 600.179688 71.964844 599.996094 71.441406 C 599.8125 70.917969 599.582031 70.414062 599.300781 69.933594 C 599.015625 69.457031 598.691406 69.007812 598.320312 68.59375 C 597.949219 68.179688 597.542969 67.804688 597.097656 67.46875 C 596.65625 67.132812 596.183594 66.84375 595.683594 66.601562 C 595.179688 66.359375 594.660156 66.167969 594.121094 66.03125 C 593.585938 65.890625 593.039062 65.804688 592.480469 65.773438 C 591.925781 65.738281 591.375 65.761719 590.824219 65.839844 C 590.273438 65.917969 589.734375 66.046875 589.207031 66.230469 C 588.683594 66.410156 588.179688 66.644531 587.699219 66.925781 C 587.21875 67.207031 586.773438 67.53125 586.355469 67.902344 Z M 586.355469 67.902344 " fill-opacity="1" fill-rule="nonzero"/><path fill="#3f3d56" d="M 189.847656 200.285156 C 189.578125 199.695312 189.449219 199.074219 189.449219 198.425781 C 189.453125 197.777344 189.59375 197.160156 189.867188 196.570312 L 199.3125 176.269531 C 199.542969 175.492188 199.847656 174.742188 200.226562 174.023438 C 200.601562 173.304688 201.046875 172.628906 201.558594 172 C 202.070312 171.367188 202.636719 170.792969 203.261719 170.273438 C 203.882812 169.753906 204.550781 169.300781 205.265625 168.910156 C 205.980469 168.523438 206.722656 168.207031 207.5 167.964844 C 208.273438 167.722656 209.066406 167.558594 209.871094 167.472656 C 210.679688 167.386719 211.488281 167.378906 212.296875 167.449219 C 213.105469 167.523438 213.898438 167.671875 214.679688 167.902344 C 215.457031 168.128906 216.207031 168.433594 216.929688 168.808594 C 217.648438 169.183594 218.324219 169.625 218.957031 170.132812 C 219.589844 170.644531 220.167969 171.207031 220.6875 171.832031 C 221.210938 172.453125 221.667969 173.121094 222.058594 173.832031 C 222.449219 174.542969 222.765625 175.285156 223.011719 176.058594 C 223.253906 176.835938 223.421875 177.625 223.511719 178.433594 C 223.601562 179.238281 223.609375 180.046875 223.539062 180.855469 C 223.46875 181.664062 223.320312 182.457031 223.097656 183.238281 L 219.9375 205.476562 C 219.894531 205.796875 219.816406 206.105469 219.703125 206.40625 C 219.59375 206.703125 219.449219 206.988281 219.277344 207.261719 C 219.105469 207.53125 218.902344 207.777344 218.675781 208.003906 C 218.449219 208.230469 218.203125 208.429688 217.933594 208.605469 C 217.664062 208.777344 217.378906 208.917969 217.078125 209.03125 C 216.777344 209.144531 216.46875 209.222656 216.148438 209.265625 C 215.832031 209.3125 215.515625 209.324219 215.195312 209.300781 C 214.875 209.277344 214.5625 209.21875 214.253906 209.128906 L 192.644531 202.726562 C 192.023438 202.542969 191.46875 202.238281 190.980469 201.8125 C 190.492188 201.386719 190.113281 200.875 189.847656 200.285156 Z M 189.847656 200.285156 " fill-opacity="1" fill-rule="nonzero"/><path fill="#3f3d56" d="M 292.59375 190.15625 L 270.984375 196.558594 C 270.679688 196.648438 270.367188 196.707031 270.046875 196.730469 C 269.726562 196.753906 269.40625 196.742188 269.089844 196.695312 C 268.773438 196.652344 268.464844 196.574219 268.164062 196.460938 C 267.863281 196.347656 267.578125 196.207031 267.308594 196.035156 C 267.039062 195.859375 266.789062 195.660156 266.5625 195.433594 C 266.335938 195.207031 266.136719 194.960938 265.964844 194.6875 C 265.789062 194.417969 265.648438 194.132812 265.535156 193.832031 C 265.425781 193.535156 265.347656 193.222656 265.300781 192.90625 L 262.144531 170.667969 C 261.917969 169.886719 261.769531 169.09375 261.699219 168.285156 C 261.628906 167.476562 261.636719 166.667969 261.726562 165.859375 C 261.816406 165.050781 261.980469 164.261719 262.226562 163.488281 C 262.46875 162.710938 262.789062 161.96875 263.179688 161.257812 C 263.570312 160.542969 264.023438 159.875 264.546875 159.253906 C 265.070312 158.632812 265.644531 158.066406 266.277344 157.558594 C 266.914062 157.046875 267.589844 156.605469 268.308594 156.230469 C 269.03125 155.855469 269.777344 155.550781 270.558594 155.324219 C 271.339844 155.09375 272.132812 154.945312 272.941406 154.871094 C 273.75 154.800781 274.558594 154.808594 275.367188 154.894531 C 276.175781 154.980469 276.96875 155.144531 277.742188 155.386719 C 278.519531 155.628906 279.261719 155.945312 279.976562 156.335938 C 280.6875 156.722656 281.359375 157.175781 281.980469 157.699219 C 282.605469 158.21875 283.171875 158.792969 283.683594 159.425781 C 284.195312 160.058594 284.636719 160.734375 285.015625 161.453125 C 285.394531 162.171875 285.699219 162.921875 285.929688 163.699219 L 295.371094 184 C 295.507812 184.289062 295.609375 184.59375 295.679688 184.90625 C 295.75 185.21875 295.785156 185.535156 295.789062 185.855469 C 295.789062 186.175781 295.757812 186.492188 295.691406 186.804688 C 295.625 187.121094 295.527344 187.421875 295.394531 187.714844 C 295.261719 188.007812 295.101562 188.28125 294.910156 188.539062 C 294.71875 188.796875 294.5 189.03125 294.261719 189.242188 C 294.019531 189.453125 293.757812 189.632812 293.476562 189.789062 C 293.195312 189.941406 292.902344 190.066406 292.59375 190.15625 Z M 292.59375 190.15625 " fill-opacity="1" fill-rule="nonzero"/><path fill="#3f3d56" d="M 207.589844 172.027344 L 224.535156 159.707031 L 252.261719 152.007812 L 275.371094 156.628906 L 276.730469 169.390625 C 278.390625 185.011719 277.679688 200.519531 274.601562 215.917969 L 274.039062 227.71875 L 214.523438 229.78125 L 208.359375 219 C 208.359375 219 194.496094 205.140625 205.277344 189.738281 Z M 207.589844 172.027344 " fill-opacity="1" fill-rule="nonzero"/><path fill="#3f3d56" d="M 535.285156 147.753906 L 535.285156 161.449219 L 533.949219 178.171875 C 533.949219 178.171875 533.523438 192.78125 533.015625 204.300781 C 532.703125 211.304688 532.355469 217.164062 532.054688 217.921875 C 531.683594 218.851562 531.769531 221.378906 531.984375 224.035156 C 532.238281 227.109375 532.652344 230.351562 532.722656 231.4375 C 532.855469 233.464844 531.78125 242.164062 531.78125 242.164062 C 531.78125 242.164062 530.582031 263.980469 528.84375 265.722656 C 527.101562 267.464844 528.84375 272.417969 528.84375 272.417969 C 520.675781 278.4375 510.363281 271.078125 510.363281 271.078125 C 512.640625 267.453125 509.023438 242.6875 509.023438 242.6875 C 509.023438 242.6875 508.496094 234.234375 507.421875 231.960938 C 506.347656 229.691406 506.078125 215.5 506.078125 215.5 L 506.078125 194.484375 C 506.078125 194.484375 503.261719 190.179688 502.867188 188.175781 C 502.46875 186.167969 502.867188 179.074219 502.867188 179.074219 L 499.925781 169.171875 L 497.910156 176.929688 C 497.910156 176.929688 492.699219 198.617188 491.757812 201.292969 C 491.503906 202.183594 491.421875 203.09375 491.511719 204.019531 C 491.605469 204.945312 491.863281 205.820312 492.289062 206.648438 C 492.289062 206.648438 493.632812 210.773438 492.289062 212.667969 C 491.449219 213.859375 490.816406 215.15625 490.394531 216.554688 C 490.394531 216.554688 489.707031 224.453125 488.5 227.28125 C 487.296875 230.105469 486.230469 233.589844 486.230469 233.589844 C 486.230469 233.589844 486.511719 238.925781 485.308594 240.132812 C 484.101562 241.335938 483.703125 247.363281 483.703125 247.363281 C 483.703125 247.363281 483.96875 254.183594 482.359375 256.59375 C 480.75 259.003906 480.75 272.65625 480.75 272.65625 C 479.355469 273.550781 477.867188 274.25 476.285156 274.75 C 474.707031 275.25 473.085938 275.535156 471.429688 275.605469 C 469.773438 275.675781 468.136719 275.53125 466.519531 275.164062 C 464.902344 274.800781 463.359375 274.230469 461.894531 273.457031 C 461.894531 273.457031 463.484375 271.96875 462.277344 265.027344 C 461.074219 258.089844 463.144531 239.191406 463.144531 239.191406 C 463.144531 239.191406 462.878906 234.398438 464.214844 232.25 C 465.554688 230.105469 463.539062 225.960938 464.078125 224.085938 C 464.613281 222.214844 466.222656 212.035156 466.222656 212.035156 C 466.222656 212.035156 465.554688 187.007812 465.554688 185.667969 C 465.394531 183.261719 464.761719 180.988281 463.660156 178.84375 C 462.457031 176.703125 463.660156 161.175781 463.660156 161.175781 C 463.660156 161.175781 466.5 153.148438 465.554688 151.410156 C 464.605469 149.667969 466.183594 146.589844 466.183594 146.589844 C 466.183594 146.589844 464.714844 142.972656 466.183594 142.304688 C 467.65625 141.636719 467.925781 138.960938 467.925781 138.960938 L 468.949219 125.976562 C 468.949219 125.976562 469.335938 120.082031 470.558594 119.816406 C 471.78125 119.550781 471.246094 117.28125 472.453125 115.671875 C 473.042969 114.578125 473.441406 113.417969 473.652344 112.191406 C 473.820312 111.445312 473.980469 110.667969 474.113281 109.925781 C 474.492188 107.90625 474.722656 106.164062 474.722656 106.164062 C 482.625 112.726562 524.171875 108.125 524.214844 108.125 C 526.855469 108.699219 529.992188 117.855469 532.257812 125.835938 C 534.28125 133.003906 535.289062 140.308594 535.285156 147.753906 Z M 535.285156 147.753906 " fill-opacity="1" fill-rule="nonzero"/><g clip-path="url(#0f333ac1fb)"><path fill="#f0f0f0" d="M 108.9375 484.492188 L 132.015625 484.492188 C 132.355469 483.875 132.675781 483.238281 132.96875 482.59375 C 135.625 476.910156 136.746094 470.566406 137.820312 464.347656 L 139.5625 454.25 C 133.996094 458.296875 128.429688 462.34375 122.871094 466.382812 C 121.058594 467.703125 119.203125 469.078125 117.460938 470.566406 C 113.796875 473.671875 110.632812 477.265625 109.390625 481.832031 C 109.328125 482.085938 109.265625 482.339844 109.214844 482.59375 C 109.082031 483.222656 108.992188 483.855469 108.9375 484.492188 Z M 108.9375 484.492188 " fill-opacity="1" fill-rule="nonzero"/></g><g clip-path="url(#06d90fee34)"><path fill="#f0f0f0" d="M 105.699219 482.59375 C 105.699219 482.632812 105.703125 482.671875 105.707031 482.714844 C 105.785156 483.324219 105.929688 483.917969 106.136719 484.492188 L 116.5 484.492188 C 116.828125 483.882812 117.101562 483.25 117.328125 482.59375 C 117.644531 481.71875 117.867188 480.820312 118.003906 479.898438 C 118.351562 476.757812 118.167969 473.644531 117.460938 470.566406 C 117.265625 469.570312 117.050781 468.570312 116.835938 467.582031 L 115.609375 461.957031 L 109.480469 471.804688 C 107.425781 475.105469 105.296875 478.738281 105.699219 482.59375 Z M 105.699219 482.59375 " fill-opacity="1" fill-rule="nonzero"/></g><path fill="#065a60" d="M 268.308594 307.117188 C 268.308594 308.050781 268.265625 308.980469 268.171875 309.910156 C 268.082031 310.835938 267.945312 311.757812 267.761719 312.671875 C 267.582031 313.585938 267.355469 314.492188 267.085938 315.382812 C 266.8125 316.277344 266.5 317.152344 266.144531 318.015625 C 265.785156 318.875 265.386719 319.71875 264.949219 320.539062 C 264.507812 321.363281 264.027344 322.160156 263.511719 322.9375 C 262.992188 323.710938 262.4375 324.460938 261.847656 325.179688 C 261.253906 325.902344 260.628906 326.589844 259.96875 327.25 C 259.308594 327.910156 258.621094 328.535156 257.898438 329.125 C 257.175781 329.71875 256.429688 330.273438 255.652344 330.789062 C 254.878906 331.308594 254.078125 331.789062 253.257812 332.226562 C 252.433594 332.667969 251.59375 333.066406 250.730469 333.421875 C 249.867188 333.777344 248.992188 334.09375 248.097656 334.363281 C 247.207031 334.632812 246.304688 334.859375 245.386719 335.042969 C 244.472656 335.222656 243.550781 335.359375 242.625 335.453125 C 241.695312 335.542969 240.765625 335.589844 239.832031 335.589844 C 238.898438 335.589844 237.96875 335.542969 237.042969 335.453125 C 236.113281 335.359375 235.191406 335.222656 234.277344 335.042969 C 233.363281 334.859375 232.457031 334.632812 231.566406 334.363281 C 230.671875 334.09375 229.796875 333.777344 228.933594 333.421875 C 228.074219 333.066406 227.230469 332.667969 226.40625 332.226562 C 225.585938 331.789062 224.785156 331.308594 224.011719 330.789062 C 223.234375 330.273438 222.488281 329.71875 221.765625 329.125 C 221.046875 328.535156 220.355469 327.910156 219.695312 327.25 C 219.035156 326.589844 218.410156 325.902344 217.820312 325.179688 C 217.226562 324.460938 216.671875 323.710938 216.152344 322.9375 C 215.636719 322.160156 215.15625 321.363281 214.71875 320.539062 C 214.277344 319.71875 213.878906 318.875 213.523438 318.015625 C 213.164062 317.152344 212.851562 316.277344 212.582031 315.382812 C 212.308594 314.492188 212.082031 313.585938 211.902344 312.671875 C 211.71875 311.757812 211.582031 310.835938 211.492188 309.910156 C 211.398438 308.980469 211.355469 308.050781 211.355469 307.117188 C 211.355469 306.1875 211.398438 305.257812 211.492188 304.328125 C 211.582031 303.398438 211.71875 302.480469 211.902344 301.566406 C 212.082031 300.648438 212.308594 299.746094 212.582031 298.855469 C 212.851562 297.960938 213.164062 297.085938 213.523438 296.222656 C 213.878906 295.363281 214.277344 294.519531 214.71875 293.699219 C 215.15625 292.875 215.636719 292.078125 216.152344 291.300781 C 216.671875 290.527344 217.226562 289.777344 217.820312 289.058594 C 218.410156 288.335938 219.035156 287.648438 219.695312 286.988281 C 220.355469 286.328125 221.046875 285.703125 221.765625 285.109375 C 222.488281 284.519531 223.234375 283.964844 224.011719 283.445312 C 224.785156 282.929688 225.585938 282.449219 226.40625 282.011719 C 227.230469 281.570312 228.074219 281.171875 228.933594 280.816406 C 229.796875 280.457031 230.671875 280.144531 231.566406 279.875 C 232.457031 279.605469 233.363281 279.378906 234.277344 279.195312 C 235.191406 279.015625 236.113281 278.878906 237.042969 278.785156 C 237.96875 278.695312 238.898438 278.648438 239.832031 278.648438 C 240.765625 278.648438 241.695312 278.695312 242.625 278.785156 C 243.550781 278.878906 244.472656 279.015625 245.386719 279.195312 C 246.304688 279.378906 247.207031 279.605469 248.097656 279.875 C 248.992188 280.144531 249.867188 280.457031 250.730469 280.816406 C 251.59375 281.171875 252.433594 281.570312 253.257812 282.011719 C 254.078125 282.449219 254.878906 282.929688 255.652344 283.445312 C 256.429688 283.964844 257.175781 284.519531 257.898438 285.109375 C 258.621094 285.703125 259.308594 286.328125 259.96875 286.988281 C 260.628906 287.648438 261.253906 288.335938 261.847656 289.058594 C 262.4375 289.777344 262.992188 290.527344 263.511719 291.300781 C 264.027344 292.078125 264.507812 292.875 264.949219 293.699219 C 265.386719 294.519531 265.785156 295.363281 266.144531 296.222656 C 266.5 297.085938 266.8125 297.960938 267.085938 298.855469 C 267.355469 299.746094 267.582031 300.648438 267.761719 301.566406 C 267.945312 302.480469 268.082031 303.398438 268.171875 304.328125 C 268.265625 305.257812 268.308594 306.1875 268.308594 307.117188 Z M 268.308594 307.117188 " fill-opacity="1" fill-rule="nonzero"/><path fill="#ffffff" d="M 235.945312 321.9375 C 235.449219 321.9375 234.976562 321.824219 234.53125 321.601562 C 234.085938 321.378906 233.710938 321.066406 233.414062 320.667969 L 225.644531 310.3125 C 225.390625 309.976562 225.210938 309.605469 225.105469 309.199219 C 225 308.789062 224.976562 308.378906 225.035156 307.960938 C 225.09375 307.542969 225.230469 307.15625 225.445312 306.792969 C 225.660156 306.429688 225.933594 306.125 226.273438 305.871094 C 226.609375 305.617188 226.980469 305.441406 227.390625 305.335938 C 227.796875 305.230469 228.207031 305.210938 228.625 305.269531 C 229.042969 305.332031 229.429688 305.46875 229.792969 305.683594 C 230.15625 305.898438 230.460938 306.175781 230.710938 306.511719 L 235.796875 313.285156 L 248.851562 293.710938 C 249.082031 293.359375 249.375 293.066406 249.722656 292.832031 C 250.070312 292.597656 250.453125 292.441406 250.863281 292.355469 C 251.277344 292.273438 251.691406 292.273438 252.101562 292.355469 C 252.515625 292.4375 252.894531 292.59375 253.246094 292.828125 C 253.597656 293.058594 253.886719 293.351562 254.121094 293.703125 C 254.355469 294.050781 254.515625 294.433594 254.597656 294.84375 C 254.679688 295.257812 254.679688 295.667969 254.597656 296.082031 C 254.515625 296.492188 254.355469 296.875 254.121094 297.222656 L 238.582031 320.523438 C 238.296875 320.953125 237.929688 321.292969 237.480469 321.539062 C 237.03125 321.789062 236.550781 321.921875 236.035156 321.933594 C 236.007812 321.933594 235.976562 321.9375 235.945312 321.9375 Z M 235.945312 321.9375 " fill-opacity="1" fill-rule="nonzero"/><path fill="#f2f2f2" d="M 349.796875 382.828125 C 349.796875 383.503906 349.730469 384.179688 349.597656 384.84375 C 349.464844 385.507812 349.269531 386.15625 349.007812 386.78125 C 348.75 387.410156 348.429688 388.003906 348.054688 388.570312 C 347.675781 389.132812 347.246094 389.65625 346.765625 390.136719 C 346.289062 390.613281 345.765625 391.042969 345.199219 391.421875 C 344.636719 391.796875 344.039062 392.117188 343.414062 392.375 C 342.785156 392.636719 342.140625 392.832031 341.472656 392.964844 C 340.808594 393.097656 340.136719 393.164062 339.457031 393.164062 C 338.777344 393.164062 338.105469 393.097656 337.441406 392.964844 C 336.773438 392.832031 336.128906 392.636719 335.5 392.375 C 334.875 392.117188 334.277344 391.796875 333.714844 391.421875 C 333.148438 391.042969 332.628906 390.613281 332.148438 390.136719 C 331.667969 389.65625 331.238281 389.132812 330.863281 388.570312 C 330.484375 388.003906 330.164062 387.410156 329.90625 386.78125 C 329.644531 386.15625 329.449219 385.507812 329.316406 384.84375 C 329.183594 384.179688 329.121094 383.503906 329.121094 382.828125 C 329.121094 382.148438 329.183594 381.476562 329.316406 380.8125 C 329.449219 380.144531 329.644531 379.5 329.90625 378.871094 C 330.164062 378.246094 330.484375 377.648438 330.863281 377.085938 C 331.238281 376.519531 331.667969 376 332.148438 375.519531 C 332.628906 375.039062 333.148438 374.609375 333.714844 374.234375 C 334.277344 373.855469 334.875 373.539062 335.5 373.277344 C 336.128906 373.019531 336.773438 372.824219 337.441406 372.691406 C 338.105469 372.558594 338.777344 372.492188 339.457031 372.492188 C 340.136719 372.492188 340.808594 372.558594 341.472656 372.691406 C 342.140625 372.824219 342.785156 373.019531 343.414062 373.277344 C 344.039062 373.539062 344.636719 373.855469 345.199219 374.234375 C 345.765625 374.609375 346.289062 375.039062 346.765625 375.519531 C 347.246094 376 347.675781 376.519531 348.054688 377.085938 C 348.429688 377.648438 348.75 378.246094 349.007812 378.871094 C 349.269531 379.5 349.464844 380.144531 349.597656 380.8125 C 349.730469 381.476562 349.796875 382.148438 349.796875 382.828125 Z M 349.796875 382.828125 " fill-opacity="1" fill-rule="nonzero"/><path fill="#f2f2f2" d="M 431.617188 382.828125 C 431.617188 383.503906 431.550781 384.179688 431.417969 384.84375 C 431.285156 385.507812 431.089844 386.15625 430.828125 386.78125 C 430.570312 387.410156 430.25 388.003906 429.875 388.570312 C 429.496094 389.132812 429.066406 389.65625 428.589844 390.136719 C 428.109375 390.613281 427.585938 391.042969 427.023438 391.421875 C 426.457031 391.796875 425.863281 392.117188 425.234375 392.375 C 424.605469 392.636719 423.960938 392.832031 423.296875 392.964844 C 422.628906 393.097656 421.957031 393.164062 421.277344 393.164062 C 420.597656 393.164062 419.925781 393.097656 419.261719 392.964844 C 418.59375 392.832031 417.949219 392.636719 417.320312 392.375 C 416.695312 392.117188 416.097656 391.796875 415.535156 391.421875 C 414.96875 391.042969 414.449219 390.613281 413.96875 390.136719 C 413.488281 389.65625 413.058594 389.132812 412.683594 388.570312 C 412.304688 388.003906 411.988281 387.410156 411.726562 386.78125 C 411.46875 386.15625 411.269531 385.507812 411.140625 384.84375 C 411.007812 384.179688 410.941406 383.503906 410.941406 382.828125 C 410.941406 382.148438 411.007812 381.476562 411.140625 380.8125 C 411.269531 380.144531 411.46875 379.5 411.726562 378.871094 C 411.988281 378.246094 412.304688 377.648438 412.683594 377.085938 C 413.058594 376.519531 413.488281 376 413.96875 375.519531 C 414.449219 375.039062 414.96875 374.609375 415.535156 374.234375 C 416.097656 373.855469 416.695312 373.539062 417.320312 373.277344 C 417.949219 373.019531 418.59375 372.824219 419.261719 372.691406 C 419.925781 372.558594 420.597656 372.492188 421.277344 372.492188 C 421.957031 372.492188 422.628906 372.558594 423.296875 372.691406 C 423.960938 372.824219 424.605469 373.019531 425.234375 373.277344 C 425.863281 373.539062 426.457031 373.855469 427.023438 374.234375 C 427.585938 374.609375 428.109375 375.039062 428.589844 375.519531 C 429.066406 376 429.496094 376.519531 429.875 377.085938 C 430.25 377.648438 430.570312 378.246094 430.828125 378.871094 C 431.089844 379.5 431.285156 380.144531 431.417969 380.8125 C 431.550781 381.476562 431.617188 382.148438 431.617188 382.828125 Z M 431.617188 382.828125 " fill-opacity="1" fill-rule="nonzero"/><path fill="#f2f2f2" d="M 387.964844 382.828125 C 387.964844 383.503906 387.898438 384.179688 387.765625 384.84375 C 387.632812 385.507812 387.4375 386.15625 387.175781 386.78125 C 386.917969 387.410156 386.597656 388.003906 386.222656 388.570312 C 385.84375 389.132812 385.417969 389.65625 384.9375 390.136719 C 384.457031 390.613281 383.933594 391.042969 383.371094 391.421875 C 382.804688 391.796875 382.210938 392.117188 381.582031 392.375 C 380.957031 392.636719 380.308594 392.832031 379.644531 392.964844 C 378.976562 393.097656 378.304688 393.164062 377.625 393.164062 C 376.949219 393.164062 376.277344 393.097656 375.609375 392.964844 C 374.945312 392.832031 374.296875 392.636719 373.671875 392.375 C 373.042969 392.117188 372.449219 391.796875 371.882812 391.421875 C 371.320312 391.042969 370.796875 390.613281 370.316406 390.136719 C 369.835938 389.65625 369.40625 389.132812 369.03125 388.570312 C 368.652344 388.003906 368.335938 387.410156 368.074219 386.78125 C 367.816406 386.15625 367.621094 385.507812 367.488281 384.84375 C 367.355469 384.179688 367.289062 383.503906 367.289062 382.828125 C 367.289062 382.148438 367.355469 381.476562 367.488281 380.8125 C 367.621094 380.144531 367.816406 379.5 368.074219 378.871094 C 368.335938 378.246094 368.652344 377.648438 369.03125 377.085938 C 369.40625 376.519531 369.835938 376 370.316406 375.519531 C 370.796875 375.039062 371.320312 374.609375 371.882812 374.234375 C 372.449219 373.855469 373.042969 373.539062 373.671875 373.277344 C 374.296875 373.019531 374.945312 372.824219 375.609375 372.691406 C 376.277344 372.558594 376.949219 372.492188 377.625 372.492188 C 378.304688 372.492188 378.976562 372.558594 379.644531 372.691406 C 380.308594 372.824219 380.957031 373.019531 381.582031 373.277344 C 382.210938 373.539062 382.804688 373.855469 383.371094 374.234375 C 383.933594 374.609375 384.457031 375.039062 384.9375 375.519531 C 385.417969 376 385.84375 376.519531 386.222656 377.085938 C 386.597656 377.648438 386.917969 378.246094 387.175781 378.871094 C 387.4375 379.5 387.632812 380.144531 387.765625 380.8125 C 387.898438 381.476562 387.964844 382.148438 387.964844 382.828125 Z M 387.964844 382.828125 " fill-opacity="1" fill-rule="nonzero"/></svg>